<svg xmlns="http://www.w3.org/2000/svg" width="660" height="312" viewBox="0 0 660 312" role="img" aria-label="대구시 응급 골든타임 최적화">
<defs><linearGradient id="bg" x1="0" y1="0" x2="1" y2="1"><stop offset="0" stop-color="#0b1020"/><stop offset="1" stop-color="#1b1230"/></linearGradient>
<marker id="ar" viewBox="0 0 10 10" refX="9" refY="5" markerWidth="7" markerHeight="7" orient="auto"><path d="M0 0L10 5L0 10z" fill="#f97316"/></marker>
<style>.h{font:700 19px 'Pretendard','Apple SD Gothic Neo','Noto Sans KR','Segoe UI',sans-serif;fill:#f8fafc}.s{font:500 12.5px 'Pretendard','Apple SD Gothic Neo','Noto Sans KR','Segoe UI',sans-serif;fill:#94a3b8}.b{font:700 13.5px 'Pretendard','Apple SD Gothic Neo','Noto Sans KR','Segoe UI',sans-serif;fill:#f8fafc}.d{font:500 11.5px 'Pretendard','Apple SD Gothic Neo','Noto Sans KR','Segoe UI',sans-serif;fill:#cbd5e1}.f{font:600 12px 'Pretendard','Apple SD Gothic Neo','Noto Sans KR','Segoe UI',sans-serif;fill:#f97316}.flow{stroke:#f97316;stroke-width:2;stroke-dasharray:5 5;animation:m 1.2s linear infinite}@keyframes m{to{stroke-dashoffset:-20}}</style></defs>
<rect width="660" height="312" rx="14" fill="url(#bg)"/>
<text x="28" y="42" class="h">대구시 응급 골든타임 최적화</text><text x="28" y="64" class="s">2026 데이터+AI 혁신챌린지 · 데이터안심구역</text>
<rect x="28.0" y="100" width="137.5" height="150" rx="10" fill="#141c33" stroke="#334155" stroke-width="1.4"/>
<text x="96.8" y="128" text-anchor="middle" class="b">도로망</text>
<text x="96.8" y="156" text-anchor="middle" class="d">ITS 표준노드링크</text>
<text x="96.8" y="175" text-anchor="middle" class="d">노드 3.7만</text>
<text x="96.8" y="194" text-anchor="middle" class="d">링크 5.2만</text>
<line class="flow" x1="167.5" y1="175.0" x2="180.5" y2="175.0" marker-end="url(#ar)"/>
<rect x="183.5" y="100" width="137.5" height="150" rx="10" fill="#141c33" stroke="#334155" stroke-width="1.4"/>
<text x="252.2" y="128" text-anchor="middle" class="b">혼잡 예측</text>
<text x="252.2" y="156" text-anchor="middle" class="d">날짜 유형 · 시각별</text>
<text x="252.2" y="175" text-anchor="middle" class="d">링크 속도 예측</text>
<text x="252.2" y="194" text-anchor="middle" class="d">MAE 9.7 km/h</text>
<line class="flow" x1="323.0" y1="175.0" x2="336.0" y2="175.0" marker-end="url(#ar)"/>
<rect x="339.0" y="100" width="137.5" height="150" rx="10" fill="#2a1a12" stroke="#f97316" stroke-width="1.4"/>
<text x="407.8" y="128" text-anchor="middle" class="b">출동 최적화</text>
<text x="407.8" y="156" text-anchor="middle" class="d">혼잡 가중 최단경로</text>
<text x="407.8" y="175" text-anchor="middle" class="d">PPO 정책</text>
<text x="407.8" y="194" text-anchor="middle" class="d">다중 출동 배정</text>
<line class="flow" x1="478.5" y1="175.0" x2="491.5" y2="175.0" marker-end="url(#ar)"/>
<rect x="494.5" y="100" width="137.5" height="150" rx="10" fill="#141c33" stroke="#334155" stroke-width="1.4"/>
<text x="563.2" y="128" text-anchor="middle" class="b">관제 UI</text>
<text x="563.2" y="156" text-anchor="middle" class="d">지도에서 사고 지정</text>
<text x="563.2" y="175" text-anchor="middle" class="d">소방서·응급실 배정</text>
<text x="563.2" y="194" text-anchor="middle" class="d">실시간 재경로</text>
<text x="28" y="286" class="f">여러 대 동시 출동 시 경로 겹침 43.6 → 3.4회 (−92%)</text></svg>